<svg version="1.2" xmlns="http://www.w3.org/2000/svg" viewBox="0 0 4000 4000" width="4000" height="4000"><style>.a{fill:#667eea}</style><path class="a" d="m636 2823.9l-74.5 25.9 8.1-78.5q37.8-364.1 75.5-728.3l-199.1 1001.2c0 0 412.1-328.4 1058.2-257.8-283.6-71.3-585.8-60.4-868.2 37.5z"/><path class="a" d="m1877.3 2877.5c-384.6-207.2-840.8-245.6-1257.7-101q51.1-493.5 102.3-987c262.3-90.7 538.1-130.7 812.7-119.5h-0.1c71 114.2 120.9 246.5 157.3 398 36.4 151.6 66 304.6 98.7 457 25.6 119.1 53.3 236.5 86.8 352.5zm606.3-1208.2c268.4-8.7 537.6 31.5 794 120.2q51.2 493.5 102.3 987c-431.7-149.7-905.5-103.3-1298.4 123.7 12.1-76.8 24.7-153.5 39.6-230.2 38.7-199 89.5-394 153.6-586.4 48.8-146.3 117.9-288.8 208.9-414.3z"/><path class="a" d="m3363.5 2823.9l74.5 25.9-8.2-78.5q-37.7-364.1-75.4-728.3l199.1 1001.2c0 0-412.2-328.4-1058.2-257.8 283.6-71.3 585.8-60.4 868.2 37.5z"/><path class="a" d="m1999.7 3044.2c-131.4-350.5-173.1-675.9-257.6-1027.7-73.5-306-215.7-628.6-645.8-816.7 0 0 602.3-66 903.4 682.2 0 0 188.2-494 639.9-494 0 0-263.4 188.2-414 639.9-150.6 451.7-188.2 790.5-225.9 1016.3z"/><path fill-rule="evenodd" class="a" d="m2004 1518.4c-155.8 0-281.7-125.9-281.7-281.7 0-155.8 125.9-281.7 281.7-281.7 155.8 0 281.7 125.9 281.7 281.7 0 155.8-125.9 281.7-281.7 281.7z"/></svg>